<?xml version="1.0" encoding="UTF-8" standalone="no"?>
<svg
   width="270.20578"
   height="338.73294"
   viewBox="0 0 270.20578 338.73294"
   fill="none"
   version="1.1"
   id="svg18"
   xml:space="preserve"
   xmlns="http://www.w3.org/2000/svg"
   xmlns:svg="http://www.w3.org/2000/svg"><g
     id="g88"
     transform="matrix(1.6363508,-0.32106936,0.32106936,1.6363508,-412.75617,-243.64422)"
     style="display:inline"><path
       id="path72"
       d="m 260.64436,354.04971 3.94761,2.31563 77.71703,-131.77052 -3.94744,-2.31563 z"
       style="fill:#fff3cc;fill-opacity:1;fill-rule:evenodd;stroke:none" /><path
       transform="matrix(0.28222222,0,0,0.28222222,257.07168,218.64033)"
       id="path73"
       d="M 12.6591,479.797 26.6467,488.002 302.022,21.0986 288.035,12.8936 Z"
       clip-path="url(#clipEmfPath1-30)"
       style="fill:none;stroke:#000000;stroke-width:3.36014px;stroke-linecap:butt;stroke-linejoin:miter;stroke-miterlimit:8;stroke-dasharray:none;stroke-opacity:1" /><path
       id="path74"
       d="m 261.54857,352.52796 11.60024,-10.45323"
       style="fill:none;stroke:#000000;stroke-width:0.948307px;stroke-linecap:butt;stroke-linejoin:round;stroke-miterlimit:10;stroke-dasharray:none;stroke-opacity:1" /><path
       id="path75"
       d="m 267.01787,343.08904 11.57817,-10.45323"
       style="fill:none;stroke:#000000;stroke-width:0.948307px;stroke-linecap:butt;stroke-linejoin:round;stroke-miterlimit:10;stroke-dasharray:none;stroke-opacity:1" /><path
       id="path76"
       d="m 272.79595,333.38539 11.57816,-10.45322"
       style="fill:none;stroke:#000000;stroke-width:0.948307px;stroke-linecap:butt;stroke-linejoin:round;stroke-miterlimit:10;stroke-dasharray:none;stroke-opacity:1" /><path
       id="path77"
       d="M 278.52988,323.65973 290.13006,313.2065"
       style="fill:none;stroke:#000000;stroke-width:0.948307px;stroke-linecap:butt;stroke-linejoin:round;stroke-miterlimit:10;stroke-dasharray:none;stroke-opacity:1" /><path
       id="path78"
       d="m 284.41823,313.73567 11.60012,-10.45351"
       style="fill:none;stroke:#000000;stroke-width:0.948307px;stroke-linecap:butt;stroke-linejoin:round;stroke-miterlimit:10;stroke-dasharray:none;stroke-opacity:1" /><path
       id="path79"
       d="m 290.10805,303.96598 11.60018,-10.43149"
       style="fill:none;stroke:#000000;stroke-width:0.948307px;stroke-linecap:butt;stroke-linejoin:round;stroke-miterlimit:10;stroke-dasharray:none;stroke-opacity:1" /><path
       id="path80"
       d="m 295.86397,294.24032 11.60018,-10.43149"
       style="fill:none;stroke:#000000;stroke-width:0.948307px;stroke-linecap:butt;stroke-linejoin:round;stroke-miterlimit:10;stroke-dasharray:none;stroke-opacity:1" /><path
       id="path81"
       d="m 301.59788,284.60272 11.60046,-10.45323"
       style="fill:none;stroke:#000000;stroke-width:0.948307px;stroke-linecap:butt;stroke-linejoin:round;stroke-miterlimit:10;stroke-dasharray:none;stroke-opacity:1" /><path
       id="path82"
       d="m 307.28776,274.85504 11.60018,-10.45351"
       style="fill:none;stroke:#000000;stroke-width:0.948307px;stroke-linecap:butt;stroke-linejoin:round;stroke-miterlimit:10;stroke-dasharray:none;stroke-opacity:1" /><path
       id="path83"
       d="m 313.02167,265.12938 11.60047,-10.45351"
       style="fill:none;stroke:#000000;stroke-width:0.948307px;stroke-linecap:butt;stroke-linejoin:round;stroke-miterlimit:10;stroke-dasharray:none;stroke-opacity:1" /><path
       id="path84"
       d="m 318.73357,255.33768 11.60046,-10.45351"
       style="fill:none;stroke:#000000;stroke-width:0.948307px;stroke-linecap:butt;stroke-linejoin:round;stroke-miterlimit:10;stroke-dasharray:none;stroke-opacity:1" /><path
       id="path85"
       d="m 324.51179,245.63401 11.60018,-10.45343"
       style="fill:none;stroke:#000000;stroke-width:0.948307px;stroke-linecap:butt;stroke-linejoin:round;stroke-miterlimit:10;stroke-dasharray:none;stroke-opacity:1" /><path
       id="path86"
       d="M 330.26771,235.90835 341.84588,225.4549"
       style="fill:none;stroke:#000000;stroke-width:0.948307px;stroke-linecap:butt;stroke-linejoin:round;stroke-miterlimit:10;stroke-dasharray:none;stroke-opacity:1" /><path
       id="path87"
       d="m 263.04822,355.43909 4.45485,-4.01377"
       style="fill:none;stroke:#000000;stroke-width:0.948307px;stroke-linecap:butt;stroke-linejoin:round;stroke-miterlimit:10;stroke-dasharray:none;stroke-opacity:1" /><path
       id="path88"
       d="m 336.35468,225.71956 3.21959,-2.82287"
       style="fill:none;stroke:#000000;stroke-width:0.948307px;stroke-linecap:butt;stroke-linejoin:round;stroke-miterlimit:10;stroke-dasharray:none;stroke-opacity:1" /></g><g
     id="layer1"
     transform="matrix(1.5085453,-0.71064796,0.71064796,1.5085453,-500.49778,-94.00371)"
     style="display:inline"><path
       id="path4129"
       d="m 260.64436,354.04971 3.94761,2.31563 77.71703,-131.77052 -3.94744,-2.31563 z"
       style="fill:#fff3cc;fill-opacity:1;fill-rule:evenodd;stroke:none" /><path
       transform="matrix(0.28222222,0,0,0.28222222,257.07168,218.64033)"
       id="path4131"
       d="M 12.6591,479.797 26.6467,488.002 302.022,21.0986 288.035,12.8936 Z"
       clip-path="url(#clipEmfPath1-30)"
       style="fill:none;stroke:#000000;stroke-width:3.36014px;stroke-linecap:butt;stroke-linejoin:miter;stroke-miterlimit:8;stroke-dasharray:none;stroke-opacity:1" /><path
       id="path4133"
       d="m 261.54857,352.52796 11.60024,-10.45323"
       style="fill:none;stroke:#000000;stroke-width:0.948307px;stroke-linecap:butt;stroke-linejoin:round;stroke-miterlimit:10;stroke-dasharray:none;stroke-opacity:1" /><path
       id="path4135"
       d="m 267.01787,343.08904 11.57817,-10.45323"
       style="fill:none;stroke:#000000;stroke-width:0.948307px;stroke-linecap:butt;stroke-linejoin:round;stroke-miterlimit:10;stroke-dasharray:none;stroke-opacity:1" /><path
       id="path4137"
       d="m 272.79595,333.38539 11.57816,-10.45322"
       style="fill:none;stroke:#000000;stroke-width:0.948307px;stroke-linecap:butt;stroke-linejoin:round;stroke-miterlimit:10;stroke-dasharray:none;stroke-opacity:1" /><path
       id="path4139"
       d="M 278.52988,323.65973 290.13006,313.2065"
       style="fill:none;stroke:#000000;stroke-width:0.948307px;stroke-linecap:butt;stroke-linejoin:round;stroke-miterlimit:10;stroke-dasharray:none;stroke-opacity:1" /><path
       id="path4141"
       d="m 284.41823,313.73567 11.60012,-10.45351"
       style="fill:none;stroke:#000000;stroke-width:0.948307px;stroke-linecap:butt;stroke-linejoin:round;stroke-miterlimit:10;stroke-dasharray:none;stroke-opacity:1" /><path
       id="path4143"
       d="m 290.10805,303.96598 11.60018,-10.43149"
       style="fill:none;stroke:#000000;stroke-width:0.948307px;stroke-linecap:butt;stroke-linejoin:round;stroke-miterlimit:10;stroke-dasharray:none;stroke-opacity:1" /><path
       id="path4145"
       d="m 295.86397,294.24032 11.60018,-10.43149"
       style="fill:none;stroke:#000000;stroke-width:0.948307px;stroke-linecap:butt;stroke-linejoin:round;stroke-miterlimit:10;stroke-dasharray:none;stroke-opacity:1" /><path
       id="path4147"
       d="m 301.59788,284.60272 11.60046,-10.45323"
       style="fill:none;stroke:#000000;stroke-width:0.948307px;stroke-linecap:butt;stroke-linejoin:round;stroke-miterlimit:10;stroke-dasharray:none;stroke-opacity:1" /><path
       id="path4149"
       d="m 307.28776,274.85504 11.60018,-10.45351"
       style="fill:none;stroke:#000000;stroke-width:0.948307px;stroke-linecap:butt;stroke-linejoin:round;stroke-miterlimit:10;stroke-dasharray:none;stroke-opacity:1" /><path
       id="path4151"
       d="m 313.02167,265.12938 11.60047,-10.45351"
       style="fill:none;stroke:#000000;stroke-width:0.948307px;stroke-linecap:butt;stroke-linejoin:round;stroke-miterlimit:10;stroke-dasharray:none;stroke-opacity:1" /><path
       id="path4153"
       d="m 318.73357,255.33768 11.60046,-10.45351"
       style="fill:none;stroke:#000000;stroke-width:0.948307px;stroke-linecap:butt;stroke-linejoin:round;stroke-miterlimit:10;stroke-dasharray:none;stroke-opacity:1" /><path
       id="path4155"
       d="m 324.51179,245.63401 11.60018,-10.45343"
       style="fill:none;stroke:#000000;stroke-width:0.948307px;stroke-linecap:butt;stroke-linejoin:round;stroke-miterlimit:10;stroke-dasharray:none;stroke-opacity:1" /><path
       id="path4157"
       d="M 330.26771,235.90835 341.84588,225.4549"
       style="fill:none;stroke:#000000;stroke-width:0.948307px;stroke-linecap:butt;stroke-linejoin:round;stroke-miterlimit:10;stroke-dasharray:none;stroke-opacity:1" /><path
       id="path4159"
       d="m 263.04822,355.43909 4.45485,-4.01377"
       style="fill:none;stroke:#000000;stroke-width:0.948307px;stroke-linecap:butt;stroke-linejoin:round;stroke-miterlimit:10;stroke-dasharray:none;stroke-opacity:1" /><path
       id="path4161"
       d="m 336.35468,225.71956 3.21959,-2.82287"
       style="fill:none;stroke:#000000;stroke-width:0.948307px;stroke-linecap:butt;stroke-linejoin:round;stroke-miterlimit:10;stroke-dasharray:none;stroke-opacity:1" /></g><path
     d="m 35.577781,222.36511 -4.8577,24.723 c -0.8189,4.168 87.702699,28.81 143.601699,53.895 29.582,-1.002 52.16,-4.972 54.139,-15.041 l 6.824,-34.681 c 1.977,-10.061 -19.386,-12.33 -46.389,-24.448 -61.235,2.071 -152.499999,-8.611 -153.317999,-4.448 z"
     fill="url(#paint0_linear_5_2)"
     id="path2"
     style="display:inline;fill:url(#paint0_linear_5_2)" /><path
     d="m 53.033781,136.05211 -4.858,24.723 c -0.819,4.168 87.441999,28.76 143.171999,53.81 29.498,-1.015 52.017,-5 53.995,-15.068 l 6.942,-34.756 c 1.977,-10.062 -19.442,-12.243 -46.364,-24.346 -61.065,2.104 -152.068999,-8.527 -152.886999,-4.363 z"
     fill="url(#paint1_linear_5_2)"
     id="path3"
     style="display:inline;fill:url(#paint1_linear_5_2)" /><path
     d="m 45.180781,173.49611 -14.5741,74.169 c 1.2145,-6.181 201.384099,20.312 207.456099,-10.591 l 14.574,-74.17 c -6.072,30.903 -206.241999,4.41 -207.455999,10.592 z"
     fill="url(#paint2_linear_5_2)"
     id="path4"
     style="display:inline;fill:url(#paint2_linear_5_2)" /><path
     d="m 62.749781,86.605111 -14.574,74.169999 c 1.214,-6.181 201.383999,20.311 207.455999,-10.593 l 14.574,-74.168899 c -6.073,30.904899 -206.241999,4.4119 -207.455999,10.5919 z"
     fill="url(#paint3_linear_5_2)"
     id="path5"
     style="display:inline;fill:url(#paint3_linear_5_2)" /><path
     d="m 28.213581,259.84411 -14.573798,74.17 c 1.214498,-6.181 201.383997,20.311 207.455997,-10.592 l 14.574,-74.169 c -6.072,30.903 -206.241699,4.41 -207.456199,10.591 z"
     fill="url(#paint4_linear_5_2)"
     id="path6"
     style="display:inline;fill:url(#paint4_linear_5_2)" /><g
     clip-path="url(#clip0_5_2)"
     id="g8"
     style="display:inline"
     transform="translate(-66.215217,-19.738894)"><path
       d="m 162.589,46.3896 c -0.911,0.1357 -2.451,0.2089 -4.071,0.6615 -1.632,0.431 -3.91,0.8905 -5.936,1.8635 -2.068,0.9462 -4.305,2.1858 -6.643,3.7225 -2.236,1.5779 -4.327,3.4845 -6.494,5.6551 -2.165,2.1671 -3.855,4.6437 -5.643,7.3177 -1.703,2.6797 -3.01,5.5397 -4.237,8.5393 -1.073,2.9829 -1.929,6.0888 -2.541,9.2159 -0.457,3.1108 -0.867,6.2765 -0.803,9.3584 0.014,3.0898 0.253,6.1389 0.844,9.0525 1.036,5.848 3.232,11.198 5.748,15.633 1.321,2.223 2.673,4.212 4.069,5.949 1.355,1.745 2.857,3.209 4.053,4.402 0.537,0.574 1.118,1.084 1.652,1.522 -0.086,-0.966 -0.165,-1.991 -0.244,-3.118 -0.369,-5.564 -0.513,-13.008 0.085,-20.412 0.29,-3.701 0.833,-7.3796 1.468,-10.7889 0.402,-1.6952 0.793,-3.3286 1.16,-4.8754 0.479,-1.5184 0.93,-2.9553 1.341,-4.2752 0.533,-1.2845 1.019,-2.4539 1.451,-3.4955 0.38,-1.0575 0.947,-1.8767 1.312,-2.5929 0.775,-1.4083 1.217,-2.2119 1.217,-2.2119 0,0 -0.378,0.8401 -1.041,2.2987 -0.301,0.7445 -0.798,1.5881 -1.096,2.6677 -0.344,1.0579 -0.732,2.2493 -1.158,3.5502 -0.304,1.3379 -0.637,2.7773 -0.986,4.3038 -0.24,1.5438 -0.494,3.1735 -0.754,4.8592 -0.359,3.4014 -0.602,7.0232 -0.595,10.6632 -0.023,7.27 0.699,14.518 1.482,19.897 0.221,1.514 0.445,2.853 0.652,4.029 0.64,-0.651 1.478,-1.435 2.293,-2.434 1.049,-1.238 2.475,-2.717 3.73,-4.366 1.31,-1.646 2.662,-3.475 3.968,-5.419 1.342,-1.948 2.548,-4.018 3.767,-6.167 1.22,-2.142 2.253,-4.379 3.255,-6.645 0.922,-2.284 1.825,-4.575 2.49,-6.9137 0.624,-2.3687 1.317,-4.6543 1.677,-7.0354 0.872,-4.6737 1.219,-9.3269 1.033,-13.9122 0.004,-2.2142 -0.315,-4.6008 -0.541,-6.7941 -0.209,-2.1857 -0.649,-4.4876 -1,-6.6303 -0.326,-2.1141 -0.716,-4.2202 -1.155,-6.2376 -0.419,-2.0969 -0.784,-3.9251 -1.079,-5.4302 -0.224,-1.5383 -0.671,-3.0205 -0.835,-3.9518 -0.245,-1.0164 -0.378,-1.551 -0.378,-1.551 0,0 -0.556,-0.0062 -1.517,0.0959 z"
       fill="#243a03"
       id="path7" /><path
       d="m 125.671,120.152 c -3.703,-0.29 -7.379,-0.837 -10.79,-1.473 -1.688,-0.397 -3.325,-0.79 -4.873,-1.156 -1.521,-0.478 -2.952,-0.932 -4.278,-1.339 -1.281,-0.531 -2.453,-1.025 -3.495,-1.452 -1.058,-0.381 -1.872,-0.95 -2.5908,-1.313 -1.4085,-0.771 -2.2128,-1.217 -2.2128,-1.217 0,0 0.8401,0.378 2.3024,1.039 0.7372,0.304 1.5832,0.799 2.6662,1.094 1.06,0.347 2.25,0.736 3.552,1.161 1.335,0.302 2.778,0.637 4.302,0.983 1.542,0.24 3.175,0.493 4.859,0.753 3.395,0.355 7.023,0.602 10.662,0.597 1.512,0.008 2.991,-0.074 4.476,-0.138 -3.191,-6.259 -5.475,-12.961 -6.829,-19.4942 -1.875,-0.7471 -3.752,-1.4638 -5.669,-2.0024 -2.37,-0.6273 -4.65,-1.3238 -7.036,-1.6784 -4.675,-0.8708 -9.324,-1.2187 -13.91,-1.0359 -2.2143,-0.0044 -4.6036,0.3159 -6.7964,0.5429 -2.1819,0.2067 -4.4836,0.6434 -6.625,0.9981 -2.1143,0.3299 -4.2175,0.7215 -6.2368,1.1609 -2.0987,0.4143 -3.9232,0.7767 -5.4329,1.0747 -1.5366,0.2267 -3.0233,0.673 -3.9518,0.8353 -1.0105,0.2462 -1.5486,0.3779 -1.5486,0.3779 0,0 -0.01,0.5636 0.0888,1.5258 0.1374,0.9073 0.2107,2.4503 0.6614,4.0703 0.4302,1.627 0.8883,3.907 1.8666,5.931 0.9435,2.072 2.1858,4.312 3.7247,6.647 1.5712,2.238 3.4746,4.325 5.6493,6.495 2.1707,2.16 4.6462,3.854 7.3193,5.645 2.6778,1.696 5.5359,3.004 8.5433,4.232 2.9842,1.077 6.0891,1.931 9.2171,2.547 3.104,0.453 6.275,0.862 9.363,0.8 3.085,-0.011 6.136,-0.25 9.047,-0.843 5.848,-1.032 11.198,-3.229 15.637,-5.745 0.187,-0.111 0.336,-0.225 0.511,-0.336 -2.287,-2.801 -4.312,-5.842 -6.116,-9.031 -1.999,-0.055 -3.994,-0.089 -6.057,-0.256 z"
       fill="#243a03"
       id="path8" /></g><defs
     id="defs18"><linearGradient
       id="paint0_linear_5_2"
       x1="99.3694"
       y1="254.511"
       x2="346.582"
       y2="303.086"
       gradientUnits="userSpaceOnUse"
       gradientTransform="translate(-66.215217,-19.738894)"><stop
         stop-color="#444444"
         id="stop9" /><stop
         offset="1"
         id="stop10" /></linearGradient><linearGradient
       id="paint1_linear_5_2"
       x1="116.827"
       y1="168.186"
       x2="363.323"
       y2="216.62"
       gradientUnits="userSpaceOnUse"
       gradientTransform="translate(-66.215217,-19.738894)"><stop
         stop-color="#444444"
         id="stop11" /><stop
         offset="1"
         id="stop12" /></linearGradient><linearGradient
       id="paint2_linear_5_2"
       x1="108.979"
       y1="205.604"
       x2="356.19199"
       y2="254.179"
       gradientUnits="userSpaceOnUse"
       gradientTransform="translate(-66.215217,-19.738894)"><stop
         stop-color="#546B33"
         id="stop13" /><stop
         offset="1"
         stop-color="#7BA43F"
         id="stop14" /></linearGradient><linearGradient
       id="paint3_linear_5_2"
       x1="126.54"
       y1="118.758"
       x2="373.75201"
       y2="167.33299"
       gradientUnits="userSpaceOnUse"
       gradientTransform="translate(-66.215217,-19.738894)"><stop
         stop-color="#546B33"
         id="stop15" /><stop
         offset="1"
         stop-color="#7BA43F"
         id="stop16" /></linearGradient><linearGradient
       id="paint4_linear_5_2"
       x1="92.008698"
       y1="291.97101"
       x2="339.22101"
       y2="340.547"
       gradientUnits="userSpaceOnUse"
       gradientTransform="translate(-66.215217,-19.738894)"><stop
         stop-color="#546B33"
         id="stop17" /><stop
         offset="1"
         stop-color="#7BA43F"
         id="stop18" /></linearGradient><clipPath
       id="clip0_5_2"><rect
         width="114.666"
         height="114.666"
         fill="#ffffff"
         transform="rotate(-30.5506,172.55965,-53.275075)"
         id="rect18"
         x="0"
         y="0" /></clipPath><clipPath
       id="clipEmfPath1-30"
       clipPathUnits="userSpaceOnUse"><path
         id="path4126"
         d="M 6.25143,6.25143 H 306.32 V 492.613 H 6.25143 Z" /></clipPath></defs></svg>
